<?xml version="1.0" standalone="no"?><!DOCTYPE svg PUBLIC "-//W3C//DTD SVG 1.1//EN" "http://www.w3.org/Graphics/SVG/1.1/DTD/svg11.dtd"><svg class="icon" height="512" viewBox="0 0 1024 1024" version="1.1" xmlns="http://www.w3.org/2000/svg"><path d="M827.076923 452.923077l-630.153846 0c-43.323077 0-78.769231 35.446154-78.769231 78.769231l0 374.153846c0 43.323077 35.446154 78.769231 78.769231 78.769231l630.153846 0c43.323077 0 78.769231-35.446154 78.769231-78.769231l0-374.153846c0-43.323077-35.446154-78.769231-78.769231-78.769231zm-216.615385 423.384615c-29.538462 19.692308-63.015385 29.538462-98.461538 29.538462-11.815385 0-23.630769-1.969231-35.446154-3.938462-47.261538-9.846154-86.646154-35.446154-112.246154-74.830769l64.984615-43.323077c13.784615 21.661538 37.415385 37.415385 63.015385 41.353846 25.6 5.907692 51.2 0 74.830769-15.753846 45.292308-29.538462 57.107692-92.553846 27.569231-135.876923-13.784615-21.661538-37.415385-37.415385-63.015385-41.353846-25.6-5.907692-51.2 0-74.830769 15.753846-5.907692 3.938462-9.846154 7.876923-13.784615 11.815385l68.923077 68.923077-177.230769 0 0-177.230769 51.2 51.2c7.876923-7.876923 17.723077-15.753846 25.6-21.661538 39.384615-25.6 86.646154-35.446154 133.907692-27.569231 47.261538 9.846154 86.646154 35.446154 112.246154 74.830769 55.138462 82.707692 33.476923 192.984615-47.261538 248.123077zm-413.538462-519.876923l0 7.876923 0-7.876923zm19.692308 17.723077l78.769231 0c11.815385 0 19.692308-5.907692 19.692308-17.723077l0-1.969231c0-112.246154 96.492308-204.8 210.707692-196.923077 104.369231 7.876923 183.138462 98.461538 183.138462 204.8l0-5.907692c0 11.815385 7.876923 17.723077 19.692308 17.723077l78.769231 0c11.815385 0 19.692308-5.907692 19.692308-17.723077l0-1.969231c0-179.2-149.661538-322.953846-330.830769-315.076923-167.384615 7.876923-295.384615 149.661538-299.323077 317.046154 1.969231 9.846154 9.846154 17.723077 19.692308 17.723077z" /></svg>